<?xml version="1.0" encoding="UTF-8"?>
<!DOCTYPE svg PUBLIC "-//W3C//DTD SVG 1.1//EN" "http://www.w3.org/Graphics/SVG/1.1/DTD/svg11.dtd">
<!-- Creator: CorelDRAW 2020 (64 Bit) -->
<svg xmlns="http://www.w3.org/2000/svg" xml:space="preserve" width="29px" height="21px" version="1.1" style="shape-rendering:geometricPrecision; text-rendering:geometricPrecision; image-rendering:optimizeQuality; fill-rule:evenodd; clip-rule:evenodd"
viewBox="0 0 28.3 20.322"
 xmlns:xlink="http://www.w3.org/1999/xlink"
 xmlns:xodm="http://www.corel.com/coreldraw/odm/2003">
 <defs>
  <style type="text/css">
   <![CDATA[
    .fil0 {fill:#FEFEFE}
   ]]>
  </style>
 </defs>
 <g id="Camada_x0020_1">
  <metadata id="CorelCorpID_0Corel-Layer"/>
  <g id="_3180410756832">
   <path class="fil0" d="M0 1.887c0,1.326 0.84,2.241 2.005,2.241l24.296 0c2.54,0 2.85,-4.128 -0.354,-4.128l-23.588 0c-1.375,0 -2.359,0.914 -2.359,1.887z"/>
   <path class="fil0" d="M0 18.163c0,0.823 0.519,1.554 1.112,1.837 0.985,0.47 19.785,0.286 24.835,0.286 3.25,0 2.908,-4.128 0.354,-4.128l-24.532 0c-0.907,0 -1.769,1.015 -1.769,2.005z"/>
   <path class="fil0" d="M0 10.143c0,0.99 0.862,2.005 1.769,2.005l24.768 0c2.208,0 2.208,-4.01 0,-4.01l-24.768 0c-0.874,0 -1.769,0.933 -1.769,2.005z"/>
  </g>
 </g>
</svg>
