<svg width="36" height="36" viewBox="0 0 36 36" fill="none" xmlns="http://www.w3.org/2000/svg">
<path d="M17.6651 35.3303C27.4213 35.3303 35.3303 27.4213 35.3303 17.6651C35.3303 7.90895 27.4213 0 17.6651 0C7.90895 0 0 7.90895 0 17.6651C0 27.4213 7.90895 35.3303 17.6651 35.3303Z" fill="#FF7915"/>
<path fill-rule="evenodd" clip-rule="evenodd" d="M12.6318 28.1365C12.2741 28.1365 11.4236 27.9556 10.5736 27.7304C9.72365 27.5047 9.14171 27.1888 9.14171 27.1888C8.82883 27.0084 8.69481 26.7373 8.64996 26.4668C8.64996 26.4668 8.56028 25.5639 8.56028 23.8488C8.56028 22.5398 8.60512 21.8178 8.64996 21.6375C8.69481 21.4117 8.78399 21.2314 9.09737 21.2314C9.41026 21.2314 9.76849 21.2314 10.7082 21.4117C11.8262 21.6375 12.3633 21.8178 12.6318 21.908C12.8555 21.9982 13.1241 22.1791 13.1689 22.5398C13.1689 22.5398 13.3029 23.4881 13.3029 24.9321C13.3029 26.1055 13.2132 27.2789 13.1689 27.6402C13.1241 27.9556 12.9895 28.1365 12.6318 28.1365ZM17.6873 24.0745C17.6873 23.8488 17.5982 23.6684 17.4636 23.5329L14.556 20.6444C14.2426 20.2836 13.8395 20.0579 13.3478 19.9677C13.3478 19.9677 12.2741 19.6967 10.6185 19.4261C9.00769 19.155 8.56028 19.2004 8.56028 19.2004C7.12837 19.2004 7.08403 20.7346 7.03919 20.9154C6.99435 21.2762 6.90466 22.2693 6.90466 23.6684C6.90466 25.2928 6.99435 26.4214 7.03919 27.1434C7.17321 28.1818 7.97885 28.6781 8.33658 28.9038C8.42626 28.9487 9.4551 29.4001 10.4396 29.716C11.1107 29.9417 12.2292 30.2577 12.7215 30.303C12.9004 30.3478 13.8844 30.4834 14.3766 29.8516L17.4636 25.8349C17.5982 25.6541 17.643 25.5639 17.643 25.2928L17.6873 24.0745ZM24.4433 18.2073C23.9959 18.162 23.5485 18.162 23.1459 18.162L16.2111 18.8391C16.2111 18.8391 15.7637 18.9293 15.4951 19.2452C15.2714 19.5163 15.2714 19.742 15.2714 19.742L15.4503 19.9224L18.1796 22.7202C18.4925 23.0366 18.6718 23.3072 18.6718 23.7586V25.3382C18.6718 25.6092 18.627 25.8798 18.4925 26.0607L17.0162 28.0911L18.4925 28.6781C19.0744 28.8585 19.5667 28.8585 20.1481 28.7683L26.5015 27.2789C26.5015 27.2789 27.6644 26.963 27.6644 25.8798V21.9534C27.6644 21.8632 27.62 21.8178 27.5304 21.8178L23.4593 22.6305C23.3248 22.6754 23.1903 22.8109 23.1903 22.9459V24.8419C23.1903 24.9774 23.3248 25.0676 23.4593 25.0222L24.7119 24.7517C24.7567 24.7517 24.8459 24.7965 24.8459 24.8867V25.5185C24.8459 25.6541 24.7567 25.7443 24.6222 25.7443L23.1903 26.0607C23.1903 26.0607 22.2063 26.3312 22.2063 25.248V22.8109C22.2063 21.773 22.9666 21.6375 22.9666 21.6375L27.4407 20.7799C27.5752 20.7799 27.6644 20.6444 27.6644 20.5542V19.5616C27.6644 18.4784 26.6355 18.3877 26.6355 18.3877L24.4433 18.2073ZM16.1214 7.96222C17.777 8.05241 19.0301 9.63245 18.9399 11.5727C18.8507 13.5135 17.4188 15.0482 15.8085 15.0029C14.1529 14.9127 12.9447 13.3332 13.0344 11.3924C13.1241 9.40673 14.5111 7.87204 16.1214 7.96222ZM22.8326 12.4756C22.9222 11.1666 23.8171 10.1287 24.9356 10.1736C25.9644 10.2189 26.8144 11.347 26.7701 12.6107C26.6804 13.9196 25.7407 14.9575 24.667 14.9127C23.5934 14.8674 22.7877 13.7846 22.8326 12.4756ZM28.4252 12.656C28.4252 10.0385 26.5015 7.96222 24.1305 7.96222C22.7434 7.96222 21.4903 8.68423 20.6852 9.81283C20.0589 7.0145 17.777 4.98352 15.0029 4.98352C11.6922 4.98352 9.05253 7.87204 9.09737 11.3924C9.09737 14.9575 11.7818 17.8914 15.0029 17.8466C15.1823 17.8466 24.1748 17.2142 24.1305 17.2142C26.6804 16.989 28.4252 15.2286 28.4252 12.656Z" fill="#FEFEFE"/>
</svg>
