<svg height="816" viewBox="0 0 2560 816" width="2560" xmlns="http://www.w3.org/2000/svg" xmlns:xlink="http://www.w3.org/1999/xlink"><clipPath id="a"><path d="m0 612h1920v-612h-1920z"/></clipPath><g fill="#ec1652" transform="matrix(1.3333333 0 0 -1.3333333 0 816)"><path d="m166.249 21.094h64.686v64.686h-64.686z"/><g fill="#fff"><path d="m0 0h-72.11v-90.673-64.685h-36.055v-186.715h72.11v186.715h127.377v64.685h-91.322z" transform="translate(165.9795 363.167)"/><path d="m0 0v90.673h-72.11v-90.673-64.686-154.372h66.567 5.543 339.501v32.343h-339.501v122.029h91.322 354.851v64.686h-354.851z" transform="translate(875.4653 272.4941)"/><path d="m0 0h451.403v64.686h-523.513v-64.326-.36-47.213h72.11z" transform="translate(947.5752 410.3799)"/><path d="m1513.016 475.065h-72.11v-267.257h72.11z"/><path d="m0 0h-72.109v-154.371h12.296v-.001h176.428v32.343h-116.615z" transform="translate(1440.8887 207.8086)"/><path d="m0 0v64.686h-292.881v-64.686-47.213h72.11v47.213z" transform="translate(314.6406 410.3799)"/><path d="m0 0-32.923-223.797h30.308l-21.553-146.514-21.554 146.514h-30.308l-32.923 223.797h-71.986l34.529-223.797h30.308l30.523-197.831h116.338l30.522 197.831h-30.308l34.529 223.797z" transform="translate(702.938 475.0659)"/><path d="m0 0h-28.987l26.349 176.368 7.945 53.212 8.037-53.212 26.656-176.368zm110.693 0-28.233 176.368-21.381 133.629h-104.413l-21.381-133.629-28.285-176.702h28.984l-10.297-64.352h-63.994l-7.511-46.946h65.157l7.009 46.946h26.213 62.168l7.092-46.946h71.696l-7.511 46.946h29.987 34.007l-10.35 64.686z" transform="translate(412.5225 165.0693)"/><path d="m0 0h-68.587l26.263 176.368h.001l7.944 53.212 8.037-53.212h-.001l26.683-176.368zm71.127-.601-28.354 176.969h.001l-21.38 133.629h-104.414l-21.38-133.629-28.145-176.368h-.371l-10.35-64.686h-.036l-12.685-79.29h65.502l11.839 79.29h125.685 34.007l-10.254 64.085z" transform="translate(1740.166 165.0693)"/><g clip-path="url(#a)"><path d="m0 0v66.758h8.276c4.674 0 7.479-2.401 7.479-9.078v-48.599c0-6.677-2.805-9.081-7.479-9.081zm30.439 9.748v47.265c0 14.952-7.21 23.099-21.894 23.099h-23.233v-93.463h23.233c14.684 0 21.894 8.144 21.894 23.099" transform="translate(37.6152 510.6597)"/><path d="m92.081 590.771h-14.688v-93.463h14.688z"/><path d="m0 0c14.42 0 21.898 8.545 21.898 23.5v29.641h-20.563v-13.353h6.677v-17.223c0-6.676-2.935-9.08-7.609-9.08-4.673 0-7.612 2.404-7.612 9.08v50.469c0 6.676 2.939 9.213 7.612 9.213 4.674 0 7.609-2.537 7.609-9.213v-10.013h13.886v9.079c0 14.952-7.478 23.497-21.898 23.497-14.419 0-21.893-8.545-21.893-23.497v-48.6c0-14.955 7.474-23.5 21.893-23.5" transform="translate(123.4414 496.2402)"/><path d="m169.5 590.771h-14.688v-93.463h14.688z"/><path d="m0 0h14.688v80.109h15.352v13.354h-45.396v-13.354h15.356z" transform="translate(191.2549 497.3086)"/><path d="m0 0 7.075-47.264h-14.15zm-11.484-76.906 2.536 16.956h18.026l2.536-16.956h14.823l-14.957 93.463h-21.495l-14.952-93.463z" transform="translate(243.7168 574.2144)"/><path d="m0 0h-24.166v80.112h-14.688v-93.463h38.854z" transform="translate(315.8052 510.6597)"/><path d="m0 0h-71.275l7.09-46.946h71.697z" transform="translate(1892.4883 100.3838)"/></g></g></g></svg>